<svg width="509" height="511" viewBox="0 0 509 511" fill="none" xmlns="http://www.w3.org/2000/svg">
<path d="M0 100C0 44.7715 44.7715 0 100 0H409C464.228 0 509 44.7715 509 100V411C509 466.228 464.228 511 409 511H100C44.7715 511 0 466.228 0 411V100Z" fill="#ECECEC"/>
<path d="M325 347.755C325 374.952 293.66 397 255 397C216.34 397 185 374.952 185 347.755C185 320.557 216.34 298.509 255 298.509C293.66 298.509 325 320.557 325 347.755Z" fill="#305E78"/>
<path d="M185 221.094H325V348.094H185V221.094Z" fill="#305E78"/>
<path d="M191 171C191 168.239 193.239 166 196 166H313C315.761 166 318 168.239 318 171V209C318 211.761 315.761 214 313 214H196C193.239 214 191 211.761 191 209V171Z" fill="#305E78"/>
<path d="M209 115H301V163H209V115Z" fill="#305E78"/>
<path d="M228 131H243V146H228V131Z" fill="#ECECEC"/>
<path d="M267 131H282V146H267V131Z" fill="#ECECEC"/>
<path d="M185 221.094H325V348.094H185V221.094Z" fill="#305E78"/>
</svg>
