<svg width="510" height="513" viewBox="0 0 510 513" fill="none" xmlns="http://www.w3.org/2000/svg">
<path d="M0 100C0 44.7715 44.7715 0 100 0H410C465.228 0 510 44.7715 510 100V413C510 468.228 465.228 513 410 513H100C44.7715 513 0 468.228 0 413V100Z" fill="#ECECEC"/>
<path fill-rule="evenodd" clip-rule="evenodd" d="M283.2 119C286.862 113.575 289 107.037 289 100C289 81.2223 273.778 66 255 66C236.222 66 221 81.2223 221 100C221 107.037 223.138 113.575 226.8 119H170.775C162.235 119 154.636 124.423 151.861 132.5L71.1063 367.5C66.6445 380.484 76.2916 394 90.0206 394H418.835C432.605 394 442.255 380.409 437.717 367.408L355.681 132.408C352.878 124.379 345.303 119 336.798 119H283.2ZM274 100C274 110.493 265.493 119 255 119C244.507 119 236 110.493 236 100C236 89.5066 244.507 81 255 81C265.493 81 274 89.5066 274 100ZM203.676 217.906V252.967L211.391 244.469L235.268 217.906H246.596L218.642 249.279L248.744 289H237.514L212.389 255.905L203.676 264.951V289H194.252V217.906H203.676ZM308.021 253.6V279.625C307.143 280.927 305.743 282.392 303.822 284.02C301.902 285.615 299.249 287.014 295.863 288.219C292.51 289.391 288.181 289.977 282.875 289.977C278.546 289.977 274.558 289.228 270.912 287.73C267.299 286.201 264.158 283.987 261.488 281.09C258.852 278.16 256.801 274.612 255.336 270.445C253.904 266.246 253.188 261.493 253.188 256.188V250.67C253.188 245.364 253.806 240.628 255.043 236.461C256.312 232.294 258.168 228.762 260.609 225.865C263.051 222.936 266.046 220.722 269.594 219.225C273.142 217.695 277.211 216.93 281.801 216.93C287.237 216.93 291.778 217.874 295.424 219.762C299.102 221.617 301.967 224.189 304.018 227.477C306.101 230.764 307.436 234.508 308.021 238.707H298.598C298.174 236.135 297.328 233.792 296.059 231.676C294.822 229.56 293.048 227.867 290.736 226.598C288.425 225.296 285.447 224.645 281.801 224.645C278.513 224.645 275.665 225.247 273.256 226.451C270.847 227.656 268.861 229.381 267.299 231.627C265.736 233.873 264.564 236.591 263.783 239.781C263.034 242.971 262.66 246.568 262.66 250.572V256.188C262.66 260.289 263.132 263.951 264.076 267.174C265.053 270.396 266.436 273.147 268.227 275.426C270.017 277.672 272.149 279.381 274.623 280.553C277.13 281.725 279.896 282.311 282.924 282.311C286.277 282.311 288.995 282.034 291.078 281.48C293.161 280.895 294.789 280.211 295.961 279.43C297.133 278.616 298.028 277.851 298.646 277.135V261.217H282.191V253.6H308.021Z" fill="#305E78"/>
</svg>
