<svg width="509" height="511" viewBox="0 0 509 511" fill="none" xmlns="http://www.w3.org/2000/svg">
<path d="M0 100C0 44.7715 44.7715 0 100 0H409C464.228 0 509 44.7715 509 100V411C509 466.228 464.228 511 409 511H100C44.7715 511 0 466.228 0 411V100Z" fill="#ECECEC"/>
<path fill-rule="evenodd" clip-rule="evenodd" d="M420 124.234C424.879 120.293 428 114.261 428 107.5C428 95.6259 418.374 86 406.5 86C400.72 86 395.472 88.2809 391.609 91.9918L216.475 98.1101C212.539 93.7444 206.84 91 200.5 91C188.626 91 179 100.626 179 112.5C179 117.093 180.44 121.35 182.894 124.843L99.9671 389.224C92.8755 392.737 88 400.049 88 408.5C88 412.263 88.9669 415.801 90.6658 418.878L90 421H92.0051C95.9053 426.449 102.288 430 109.5 430C116.712 430 123.095 426.449 126.995 421H392.766C396.707 425.879 402.739 429 409.5 429C421.374 429 431 419.374 431 407.5C431 399.439 426.564 392.414 420 388.734V124.234ZM129.656 401H389C390.777 395.39 394.794 390.776 400 388.207V128C392.77 125.71 387.194 119.7 385.519 112.217L221.302 117.954C218.927 127.037 210.76 133.779 200.984 133.995L120.649 390.113C124.754 392.607 127.957 396.437 129.656 401Z" fill="#305E78"/>
</svg>
