<svg width="509" height="511" viewBox="0 0 509 511" fill="none" xmlns="http://www.w3.org/2000/svg">
<path d="M0 100C0 44.7715 44.7715 0 100 0H409C464.228 0 509 44.7715 509 100V411C509 466.228 464.228 511 409 511H100C44.7715 511 0 466.228 0 411V100Z" fill="#ECECEC"/>
<path d="M151 72H170V91H339V72H358V91H399C410.046 91 419 99.9543 419 111V156H90V111C90 99.9543 98.9543 91 110 91H151V72Z" fill="#305E78"/>
<path d="M314.946 274.282C315.074 274.017 315.196 273.751 315.312 273.484V268.203C315.312 263.369 314.751 259.072 313.628 255.312C312.554 251.553 311.04 248.403 309.087 245.864C307.183 243.325 305.01 241.396 302.568 240.078C300.127 238.76 297.539 238.101 294.805 238.101C291.68 238.101 288.872 238.735 286.382 240.005C283.94 241.226 281.865 242.959 280.156 245.205C278.496 247.451 277.227 250.088 276.348 253.115C275.469 256.143 275.029 259.438 275.029 263.003C275.029 266.177 275.42 269.253 276.201 272.231C276.982 275.21 278.179 277.896 279.79 280.288C281.401 282.681 283.403 284.585 285.796 286.001C288.237 287.368 291.094 288.052 294.365 288.052C297.393 288.052 300.225 287.466 302.861 286.294C305.547 285.073 307.915 283.438 309.966 281.387C312.065 279.287 313.726 276.919 314.946 274.282Z" fill="#305E78"/>
<path fill-rule="evenodd" clip-rule="evenodd" d="M90 162V400C90 411.046 98.9543 420 110 420H399C410.046 420 419 411.046 419 400V162H90ZM248.735 323.867V335H178.936V325.259L213.872 286.367C218.169 281.582 221.489 277.529 223.833 274.209C226.226 270.84 227.886 267.837 228.813 265.2C229.79 262.515 230.278 259.78 230.278 256.997C230.278 253.481 229.546 250.308 228.081 247.476C226.665 244.595 224.565 242.3 221.782 240.591C218.999 238.882 215.63 238.027 211.675 238.027C206.938 238.027 202.983 238.955 199.81 240.811C196.685 242.617 194.341 245.156 192.778 248.428C191.216 251.699 190.435 255.459 190.435 259.707H176.885C176.885 253.701 178.203 248.208 180.84 243.228C183.477 238.247 187.383 234.292 192.559 231.362C197.734 228.384 204.106 226.895 211.675 226.895C218.413 226.895 224.175 228.091 228.96 230.483C233.745 232.827 237.407 236.147 239.946 240.444C242.534 244.692 243.828 249.673 243.828 255.386C243.828 258.511 243.291 261.685 242.217 264.907C241.191 268.081 239.751 271.255 237.896 274.429C236.089 277.603 233.965 280.728 231.523 283.804C229.131 286.88 226.567 289.907 223.833 292.886L195.269 323.867H248.735ZM276.714 323.647H278.105C285.918 323.647 292.266 322.549 297.148 320.352C302.031 318.154 305.791 315.2 308.428 311.489C311.064 307.778 312.871 303.604 313.848 298.965C314.598 295.364 315.06 291.692 315.234 287.948C315.02 288.204 314.802 288.459 314.58 288.711C311.748 291.934 308.428 294.521 304.619 296.475C300.811 298.379 296.66 299.331 292.168 299.331C286.895 299.331 282.329 298.306 278.472 296.255C274.614 294.204 271.44 291.47 268.95 288.052C266.509 284.634 264.678 280.825 263.457 276.626C262.285 272.378 261.699 268.081 261.699 263.735C261.699 258.657 262.407 253.896 263.823 249.453C265.239 245.01 267.339 241.104 270.122 237.734C272.905 234.316 276.348 231.655 280.449 229.751C284.6 227.847 289.385 226.895 294.805 226.895C300.908 226.895 306.108 228.115 310.405 230.557C314.702 232.998 318.193 236.27 320.879 240.371C323.613 244.473 325.615 249.087 326.885 254.214C328.154 259.341 328.789 264.614 328.789 270.034V274.941C328.789 280.459 328.423 286.074 327.69 291.787C327.007 297.451 325.664 302.871 323.662 308.047C321.709 313.223 318.853 317.861 315.093 321.963C311.333 326.016 306.426 329.238 300.371 331.631C294.365 333.975 286.943 335.146 278.105 335.146H276.714V323.647Z" fill="#305E78"/>
</svg>
