<svg width="509" height="511" viewBox="0 0 509 511" fill="none" xmlns="http://www.w3.org/2000/svg">
<path d="M0 100C0 44.7715 44.7715 0 100 0H409C464.228 0 509 44.7715 509 100V411C509 466.228 464.228 511 409 511H100C44.7715 511 0 466.228 0 411V100Z" fill="#ECECEC"/>
<path d="M349.052 116L395.626 162.573L161.573 396.626L115 350.052L349.052 116Z" fill="#305E78"/>
<path d="M131 341.893L133.11 339.76L145.196 351.715L143.087 353.847L131 341.893Z" fill="#ECECEC"/>
<path d="M139.439 333.361L141.548 331.228L153.635 343.183L151.525 345.316L139.439 333.361Z" fill="#ECECEC"/>
<path d="M147.877 324.829L149.987 322.697L162.073 334.651L159.964 336.784L147.877 324.829Z" fill="#ECECEC"/>
<path d="M156.316 316.298L158.426 314.165L170.512 326.12L168.402 328.253L156.316 316.298Z" fill="#ECECEC"/>
<path d="M164.755 307.766L166.864 305.633L178.951 317.588L176.841 319.721L164.755 307.766Z" fill="#ECECEC"/>
<path d="M173.193 299.234L175.303 297.102L187.389 309.056L185.28 311.189L173.193 299.234Z" fill="#ECECEC"/>
<path d="M181.632 290.703L183.742 288.57L195.828 300.525L193.718 302.658L181.632 290.703Z" fill="#ECECEC"/>
<path d="M190.071 282.171L192.18 280.038L204.267 291.993L202.157 294.126L190.071 282.171Z" fill="#ECECEC"/>
<path d="M198.509 273.639L200.619 271.507L212.705 283.461L210.596 285.594L198.509 273.639Z" fill="#ECECEC"/>
<path d="M206.948 265.108L209.057 262.975L221.144 274.93L219.034 277.063L206.948 265.108Z" fill="#ECECEC"/>
<path d="M215.387 256.576L217.496 254.443L229.583 266.398L227.473 268.531L215.387 256.576Z" fill="#ECECEC"/>
<path d="M223.825 248.044L225.935 245.912L238.021 257.866L235.912 259.999L223.825 248.044Z" fill="#ECECEC"/>
<path d="M232.264 239.513L234.373 237.38L246.46 249.335L244.35 251.468L232.264 239.513Z" fill="#ECECEC"/>
<path d="M240.702 230.981L242.812 228.848L254.899 240.803L252.789 242.936L240.702 230.981Z" fill="#ECECEC"/>
<path d="M249.141 222.449L251.251 220.317L263.337 232.271L261.228 234.404L249.141 222.449Z" fill="#ECECEC"/>
<path d="M257.58 213.918L259.689 211.785L271.776 223.74L269.666 225.873L257.58 213.918Z" fill="#ECECEC"/>
<path d="M266.018 205.386L268.128 203.253L280.215 215.208L278.105 217.341L266.018 205.386Z" fill="#ECECEC"/>
<path d="M274.457 196.854L276.567 194.722L288.653 206.676L286.544 208.809L274.457 196.854Z" fill="#ECECEC"/>
<path d="M282.896 188.323L285.005 186.19L297.092 198.145L294.982 200.278L282.896 188.323Z" fill="#ECECEC"/>
<path d="M291.334 179.791L293.444 177.658L305.531 189.613L303.421 191.746L291.334 179.791Z" fill="#ECECEC"/>
<path d="M299.773 171.26L301.883 169.127L313.969 181.081L311.859 183.214L299.773 171.26Z" fill="#ECECEC"/>
<path d="M308.212 162.728L310.321 160.595L322.408 172.55L320.298 174.683L308.212 162.728Z" fill="#ECECEC"/>
<path d="M316.65 154.196L318.76 152.063L330.846 164.018L328.737 166.151L316.65 154.196Z" fill="#ECECEC"/>
<path d="M325.089 145.665L327.199 143.532L339.285 155.486L337.175 157.619L325.089 145.665Z" fill="#ECECEC"/>
<path d="M333.528 137.133L335.637 135L347.724 146.955L345.614 149.088L333.528 137.133Z" fill="#ECECEC"/>
</svg>
