<svg width="509" height="511" viewBox="0 0 509 511" fill="none" xmlns="http://www.w3.org/2000/svg">
<path d="M0 100C0 44.7715 44.7715 0 100 0H409C464.228 0 509 44.7715 509 100V411C509 466.228 464.228 511 409 511H100C44.7715 511 0 466.228 0 411V100Z" fill="#ECECEC"/>
<path d="M230.985 301.981C223.701 296.732 220.808 287.272 223.91 278.846L227.771 268.36C228.643 265.991 229.956 263.808 231.64 261.927L344.704 135.674C345.315 134.992 346.338 134.872 347.09 135.394C347.841 135.915 348.086 136.913 347.664 137.723L268.672 289.075C267.514 291.294 265.95 293.276 264.061 294.918L256.582 301.417C249.576 307.506 239.3 307.974 231.769 302.546L230.985 301.981Z" fill="#305E78"/>
<path d="M385 282.5C385 360.096 322.096 423 244.5 423C166.904 423 104 360.096 104 282.5C104 204.904 166.904 142 244.5 142C270.104 142 294.108 148.849 314.781 160.814L330.543 146.988C305.675 131.166 276.158 122 244.5 122C155.858 122 84 193.858 84 282.5C84 371.142 155.858 443 244.5 443C333.142 443 405 371.142 405 282.5C405 230.92 380.669 185.022 342.857 155.659L335.493 175.443C365.784 201.214 385 239.613 385 282.5Z" fill="#305E78"/>
<path d="M62 348H448V500H62V348Z" fill="#ECECEC"/>
<path d="M98 337.5C98 331.701 102.701 327 108.5 327H382.5C388.299 327 393 331.701 393 337.5C393 343.299 388.299 348 382.5 348H108.5C102.701 348 98 343.299 98 337.5Z" fill="#305E78"/>
</svg>
