<svg width="509" height="511" viewBox="0 0 509 511" fill="none" xmlns="http://www.w3.org/2000/svg">
<path d="M0 100C0 44.7715 44.7715 0 100 0H409C464.228 0 509 44.7715 509 100V411C509 466.228 464.228 511 409 511H100C44.7715 511 0 466.228 0 411V100Z" fill="#ECECEC"/>
<path d="M255 394C279.301 394 299 374.301 299 350C299 326.708 280.901 307.643 258 306.101V168.5C258 167.119 256.881 166 255.5 166C254.119 166 253 167.119 253 168.5V306.045C229.628 307.09 211 326.37 211 350C211 374.301 230.699 394 255 394Z" fill="#305E78"/>
<path fill-rule="evenodd" clip-rule="evenodd" d="M277 279C277 281.583 276.51 284.051 275.619 286.317C303.116 295.22 323 321.038 323 351.5C323 389.332 292.332 420 254.5 420C216.668 420 186 389.332 186 351.5C186 320.71 206.315 294.664 234.273 286.036C233.45 283.847 233 281.476 233 279V111C233 99.9543 241.954 91 253 91H257C268.046 91 277 99.9543 277 111V279ZM253 106H257C259.761 106 262 108.239 262 111V298.522C287.996 302.168 308 324.498 308 351.5C308 381.047 284.047 405 254.5 405C224.953 405 201 381.047 201 351.5C201 324.153 221.518 301.598 248 298.391V111C248 108.239 250.239 106 253 106Z" fill="#305E78"/>
<path d="M283.5 138C282.119 138 281 139.119 281 140.5C281 141.881 282.119 143 283.5 143H301.5C302.881 143 304 141.881 304 140.5C304 139.119 302.881 138 301.5 138H283.5Z" fill="#305E78"/>
<path d="M281 154.5C281 153.119 282.119 152 283.5 152H301.5C302.881 152 304 153.119 304 154.5C304 155.881 302.881 157 301.5 157H283.5C282.119 157 281 155.881 281 154.5Z" fill="#305E78"/>
<path d="M283.5 166C282.119 166 281 167.119 281 168.5C281 169.881 282.119 171 283.5 171H301.5C302.881 171 304 169.881 304 168.5C304 167.119 302.881 166 301.5 166H283.5Z" fill="#305E78"/>
<path d="M281 182.5C281 181.119 282.119 180 283.5 180H301.5C302.881 180 304 181.119 304 182.5C304 183.881 302.881 185 301.5 185H283.5C282.119 185 281 183.881 281 182.5Z" fill="#305E78"/>
<path d="M283.5 194C282.119 194 281 195.119 281 196.5C281 197.881 282.119 199 283.5 199H301.5C302.881 199 304 197.881 304 196.5C304 195.119 302.881 194 301.5 194H283.5Z" fill="#305E78"/>
<path d="M281 210.5C281 209.119 282.119 208 283.5 208H301.5C302.881 208 304 209.119 304 210.5C304 211.881 302.881 213 301.5 213H283.5C282.119 213 281 211.881 281 210.5Z" fill="#305E78"/>
<path d="M283.5 222C282.119 222 281 223.119 281 224.5C281 225.881 282.119 227 283.5 227H301.5C302.881 227 304 225.881 304 224.5C304 223.119 302.881 222 301.5 222H283.5Z" fill="#305E78"/>
<path d="M281 238.5C281 237.119 282.119 236 283.5 236H301.5C302.881 236 304 237.119 304 238.5C304 239.881 302.881 241 301.5 241H283.5C282.119 241 281 239.881 281 238.5Z" fill="#305E78"/>
<path d="M283.5 250C282.119 250 281 251.119 281 252.5C281 253.881 282.119 255 283.5 255H301.5C302.881 255 304 253.881 304 252.5C304 251.119 302.881 250 301.5 250H283.5Z" fill="#305E78"/>
</svg>
