<svg width="509" height="511" viewBox="0 0 509 511" fill="none" xmlns="http://www.w3.org/2000/svg">
<path d="M0 100C0 44.7715 44.7715 0 100 0H409C464.228 0 509 44.7715 509 100V411C509 466.228 464.228 511 409 511H100C44.7715 511 0 466.228 0 411V100Z" fill="#ECECEC"/>
<path d="M418 255.5C418 345.799 344.799 419 254.5 419C164.201 419 91 345.799 91 255.5C91 165.201 164.201 92 254.5 92C344.799 92 418 165.201 418 255.5Z" fill="#305E78"/>
<path d="M252 101C252 98.2386 254.239 96 257 96C259.761 96 262 98.2386 262 101V122C262 124.761 259.761 127 257 127C254.239 127 252 124.761 252 122V101Z" fill="#ECECEC"/>
<path d="M246 181.5C246 175.149 251.149 170 257.5 170C263.851 170 269 175.149 269 181.5V235.527C271.479 237.21 273.57 239.422 275.11 242H356C362.075 242 367 246.925 367 253C367 259.075 362.075 264 356 264H274.473C270.786 269.432 264.56 273 257.5 273C246.178 273 237 263.822 237 252.5C237 245.44 240.568 239.214 246 235.527V181.5Z" fill="#ECECEC"/>
<path d="M258 384C255.239 384 253 386.239 253 389V410C253 412.761 255.239 415 258 415C260.761 415 263 412.761 263 410V389C263 386.239 260.761 384 258 384Z" fill="#ECECEC"/>
<path d="M119.5 247.5C122.261 247.5 124.5 249.739 124.5 252.5C124.5 255.261 122.261 257.5 119.5 257.5H98.5C95.7386 257.5 93.5 255.261 93.5 252.5C93.5 249.739 95.7386 247.5 98.5 247.5H119.5Z" fill="#ECECEC"/>
<path d="M413 253C413 250.239 410.761 248 408 248H387C384.239 248 382 250.239 382 253C382 255.761 384.239 258 387 258H408C410.761 258 413 255.761 413 253Z" fill="#ECECEC"/>
</svg>
